<?xml version="1.0" encoding="UTF-8" standalone="no"?>
<!-- Generator: Adobe Illustrator 18.1.0, SVG Export Plug-In . SVG Version: 6.00 Build 0)  -->

<svg
   xmlns:dc="http://purl.org/dc/elements/1.1/"
   xmlns:cc="http://creativecommons.org/ns#"
   xmlns:rdf="http://www.w3.org/1999/02/22-rdf-syntax-ns#"
   xmlns:svg="http://www.w3.org/2000/svg"
   xmlns="http://www.w3.org/2000/svg"
   xmlns:sodipodi="http://sodipodi.sourceforge.net/DTD/sodipodi-0.dtd"
   xmlns:inkscape="http://www.inkscape.org/namespaces/inkscape"
   version="1.1"
   id="Layer_1"
   x="0px"
   y="0px"
   viewBox="0 0 116 124"
   enable-background="new 0 0 128 128"
   xml:space="preserve"
   sodipodi:docname="fork.svg"
   inkscape:version="0.92.3 (2405546, 2018-03-11)"
   width="116"
   height="124"><metadata
   id="metadata251"><rdf:RDF><cc:Work
       rdf:about=""><dc:format>image/svg+xml</dc:format><dc:type
         rdf:resource="http://purl.org/dc/dcmitype/StillImage" /><dc:title></dc:title></cc:Work></rdf:RDF></metadata><defs
   id="defs249">
	
	
	
	
	
	

		
		
		
		
		
	
			
			
			
			
			
			
			
			
			
			
			
			
			
			
			
			
			
			
			
			
			
			
			
			
			
			
			
			
			
			
			
			
			
			
			
			
			
			
			
			
			
			
			
			
			
			
			
			
			
			
		</defs><sodipodi:namedview
   pagecolor="#ffffff"
   bordercolor="#666666"
   borderopacity="1"
   objecttolerance="10"
   gridtolerance="10"
   guidetolerance="10"
   inkscape:pageopacity="0"
   inkscape:pageshadow="2"
   inkscape:window-width="1920"
   inkscape:window-height="1047"
   id="namedview247"
   showgrid="false"
   inkscape:zoom="2.184038"
   inkscape:cx="-2.3362058"
   inkscape:cy="129.27005"
   inkscape:window-x="0"
   inkscape:window-y="5"
   inkscape:window-maximized="1"
   inkscape:current-layer="Layer_1" />

<g
   transform="matrix(1.3333333,0,0,-1.3333333,-45.006805,-18.059848)"
   id="g1365"><path
     inkscape:connector-curvature="0"
     id="path1367"
     style="fill:#008080;fill-opacity:1;fill-rule:evenodd;stroke:none"
     d="m 0,0 v 26.077 h 0.062 v 16.512 c -0.001,2.408 -1.952,4.36 -4.361,4.36 H -18.63 v -8.721 h 9.56 V 0" /></g><g
   transform="matrix(1.3333333,0,0,-1.3333333,-45.006805,-18.059848)"
   id="g1369"><path
     inkscape:connector-curvature="0"
     id="path1371"
     style="fill:#000000;fill-opacity:1;fill-rule:nonzero;stroke:none"
     d="M 0,0 H 0.273 V 26.077 H 0 v -0.271 h 0.062 l 0.193,0.079 0.08,0.192 v 16.512 c -0.001,2.558 -2.075,4.633 -4.634,4.633 H -18.63 l -0.193,-0.08 -0.08,-0.193 v -8.721 l 0.08,-0.194 0.193,-0.079 h 9.288 V 0 l 0.08,-0.193 0.192,-0.08 H 0 L 0.193,-0.193 0.273,0 H 0 V 0.273 H -8.797 V 38.228 L -8.878,38.419 -9.07,38.5 h -9.288 v 8.178 h 14.059 c 2.258,0 4.088,-1.831 4.089,-4.089 V 26.077 H 0.062 V 26.35 H 0 L -0.192,26.271 -0.273,26.077 V 0 H 0 V 0.273 0" /></g><path
   inkscape:connector-curvature="0"
   id="path1373"
   style="fill:#038282;fill-opacity:1;fill-rule:nonzero;stroke:none;stroke-width:1.33333325"
   d="m -135.0588,-68.787844 h 35.573325 v -12.12 H -135.0588 Z" /><g
   transform="matrix(1.3333333,0,0,-1.3333333,-135.06147,-80.906508)"
   id="g1375"><path
     inkscape:connector-curvature="0"
     id="path1377"
     style="fill:#000000;fill-opacity:1;fill-rule:nonzero;stroke:none"
     d="m 0,0 v -0.325 h 26.359 v -8.44 H 0.324 V 0 H 0 V -0.325 0 H -0.325 V -9.414 H 27.008 V 0.324 H -0.325 V 0 H 0" /></g><g
   transform="matrix(1.3333333,0,0,-1.3333333,-56.905475,-7.8385083)"
   id="g1379"><path
     inkscape:connector-curvature="0"
     id="path1381"
     style="fill:#008080;fill-opacity:1;fill-rule:evenodd;stroke:none"
     d="m 0,0 v -9.559 h -31.935 v 0.01 h -26.682 v -9.089 h 26.682 v 0.009 H -12.15 V -18.69 H 4.36 c 2.41,0 4.362,1.952 4.362,4.36 V 0" /></g><g
   transform="matrix(1.3333333,0,0,-1.3333333,-56.905475,-7.8385083)"
   id="g1383"><path
     inkscape:connector-curvature="0"
     id="path1385"
     style="fill:#000000;fill-opacity:1;fill-rule:nonzero;stroke:none"
     d="m 0,0 h -0.273 v -9.286 h -31.662 v -0.273 h 0.273 v 0.01 l -0.079,0.193 -0.194,0.079 h -26.682 l -0.194,-0.079 -0.079,-0.193 v -9.089 l 0.079,-0.193 0.194,-0.08 h 26.682 l 0.194,0.08 0.079,0.193 v 0.009 h -0.273 v -0.273 h 19.785 v 0.273 h -0.272 v -0.061 l 0.08,-0.193 0.192,-0.08 H 4.36 c 2.56,0 4.634,2.074 4.634,4.633 V 0 L 8.916,0.193 8.722,0.273 H 0 L -0.193,0.193 -0.273,0 H 0 V -0.272 H 8.45 V -14.33 C 8.449,-15.459 7.992,-16.48 7.253,-17.22 6.512,-17.961 5.49,-18.418 4.36,-18.418 h -16.51 v -0.272 h 0.273 v 0.061 l -0.079,0.192 -0.194,0.08 h -19.785 l -0.191,-0.08 -0.081,-0.192 v -0.009 h 0.272 v 0.272 h -26.409 v 8.544 h 26.409 v 0.273 h -0.272 v -0.01 l 0.081,-0.193 0.191,-0.079 H 0 l 0.193,0.079 0.079,0.193 V 0 H 0 V -0.272 0" /></g><path
   inkscape:connector-curvature="0"
   id="path1387"
   style="fill:#008080;fill-opacity:1;fill-rule:nonzero;stroke:none;stroke-width:1.33333325"
   d="m -57.888135,-5.7571793 h 13.83866 V -32.506512 h -13.83866 z" /><g
   transform="matrix(1.3333333,0,0,-1.3333333,-44.049475,-32.507848)"
   id="g1389"><path
     inkscape:connector-curvature="0"
     id="path1391"
     style="fill:#0b280b;fill-opacity:1;fill-rule:nonzero;stroke:none"
     d="m 0,0 v -0.325 h -10.056 v -19.414 h 9.732 L -0.324,0 H 0 V -0.325 0 H 0.324 V -20.388 H -10.704 V 0.323 H 0.324 V 0 H 0" /></g><path
   inkscape:connector-curvature="0"
   id="path1393"
   style="fill:#008080;fill-opacity:1;fill-rule:nonzero;stroke:none;stroke-width:1.33333325"
   d="m -59.165475,-0.8091793 h 16.392 v -7.833333 h -16.392 z" /><g
   transform="matrix(1.3333333,0,0,-1.3333333,-42.773475,-8.6425083)"
   id="g1395"><path
     inkscape:connector-curvature="0"
     id="path1397"
     style="fill:#0b280b;fill-opacity:1;fill-rule:nonzero;stroke:none"
     d="M 0,0 V -0.324 H -11.97 V -5.551 H -0.324 V 0 H 0 V -0.324 0 H 0.324 V -6.199 H -12.619 V 0.325 H 0.324 V 0 H 0" /></g><g
   transform="matrix(1.3333333,0,0,-1.3333333,-52.301475,-2.5838483)"
   id="g1399"><path
     inkscape:connector-curvature="0"
     id="path1401"
     style="fill:#ff0000;fill-opacity:1;fill-rule:nonzero;stroke:none"
     d="M 0,0 H 2 L 1,3.214" /></g><g
   transform="matrix(1.3333333,0,0,-1.3333333,-52.301475,-2.5838483)"
   id="g1403"><path
     inkscape:connector-curvature="0"
     id="path1405"
     style="fill:#000000;fill-opacity:1;fill-rule:nonzero;stroke:none"
     d="M 0,0 V 0.295 H 1.725 L 1,2.626 0.137,-0.147 0,0 V 0.295 0 l -0.138,0.147 1,3.214 L 1,3.51 1.136,3.363 2.137,0.147 V -0.147 L 2,-0.294 H 0 l -0.138,0.147 V 0.147 L 0,0" /></g><g
   transform="matrix(1.3333333,0,0,-1.3333333,-157.84281,-80.975848)"
   id="g1407"><path
     inkscape:connector-curvature="0"
     id="path1409"
     style="fill:#008080;fill-opacity:1;fill-rule:evenodd;stroke:none"
     d="M 0,0 C -2.409,-0.002 -4.36,-1.953 -4.362,-4.363 V -20.872 H 4.361 V -8.724 H 14.33 V 0" /></g><g
   transform="matrix(1.3333333,0,0,-1.3333333,-157.84281,-80.975848)"
   id="g1411"><path
     inkscape:connector-curvature="0"
     id="path1413"
     style="fill:#000000;fill-opacity:1;fill-rule:nonzero;stroke:none"
     d="M 0,0 V 0.274 C -2.56,0.271 -4.633,-1.803 -4.635,-4.363 v -16.509 l 0.081,-0.193 0.192,-0.079 h 8.723 l 0.193,0.079 0.079,0.193 v 11.876 h 9.697 l 0.193,0.081 0.079,0.191 V 0 L 14.523,0.192 14.33,0.274 H 0 V -0.272 H 14.057 V -8.451 H 4.361 L 4.168,-8.53 4.088,-8.724 V -20.599 H -4.09 v 16.236 c 10e-4,2.26 1.831,4.09 4.091,4.091 L 0,-0.272 V 0" /></g><g
   transform="matrix(1.3333333,0,0,-1.3333333,-164.12147,-45.518508)"
   id="g1415"><path
     inkscape:connector-curvature="0"
     id="path1417"
     style="fill:#008080;fill-opacity:1;fill-rule:evenodd;stroke:none"
     d="M 0,0 V -26.079 H -0.061 V -42.59 c 0,-2.408 1.952,-4.36 4.361,-4.36 h 14.33 v 8.721 H 9.07 V 0" /></g><g
   transform="matrix(1.3333333,0,0,-1.3333333,-164.12147,-45.518508)"
   id="g1419"><path
     inkscape:connector-curvature="0"
     id="path1421"
     style="fill:#000000;fill-opacity:1;fill-rule:nonzero;stroke:none"
     d="M 0,0 H -0.273 V -26.079 H 0 v 0.273 h -0.061 l -0.193,-0.079 -0.079,-0.194 V -42.59 c 0,-2.559 2.074,-4.632 4.633,-4.633 h 14.33 l 0.193,0.08 0.08,0.193 v 8.721 l -0.08,0.192 -0.193,0.081 H 9.342 V 0 L 9.263,0.193 9.07,0.272 H 0 L -0.193,0.193 -0.273,0 H 0 v -0.273 h 8.797 v -37.956 l 0.08,-0.193 0.193,-0.08 h 9.287 v -8.176 H 4.3 c -1.13,0 -2.15,0.457 -2.891,1.198 -0.74,0.74 -1.197,1.761 -1.197,2.89 v 16.511 h -0.273 v -0.272 H 0 l 0.192,0.08 0.081,0.192 V 0 H 0 V -0.273 0" /></g><path
   inkscape:connector-curvature="0"
   id="path1423"
   style="fill:#008080;fill-opacity:1;fill-rule:nonzero;stroke:none;stroke-width:1.33333325"
   d="m -174.54281,-37.482511 h 10.18001 v -13.838667 h -10.18001 z" /><g
   transform="matrix(1.3333333,0,0,-1.3333333,-164.36281,-51.322508)"
   id="g1425"><path
     inkscape:connector-curvature="0"
     id="path1427"
     style="fill:#0b280b;fill-opacity:1;fill-rule:nonzero;stroke:none"
     d="m 0,0 h -0.324 v -10.056 h -6.988 v 9.732 H 0 V 0 H -0.324 0 V 0.324 H -7.959 V -10.704 H 0.324 V 0.324 H 0 V 0" /></g><path
   inkscape:connector-curvature="0"
   id="path1429"
   style="fill:#008080;fill-opacity:1;fill-rule:nonzero;stroke:none;stroke-width:1.33333325"
   d="m -179.48947,-36.206511 h 7.83546 v -16.393333 h -7.83546 z" /><g
   transform="matrix(1.3333333,0,0,-1.3333333,-171.65347,-52.599848)"
   id="g1431"><path
     inkscape:connector-curvature="0"
     id="path1433"
     style="fill:#0b280b;fill-opacity:1;fill-rule:nonzero;stroke:none"
     d="M 0,0 H -0.324 V -11.971 H -5.552 V -0.325 H 0 V 0 H -0.324 0 V 0.324 H -6.201 V -12.62 H 0.324 V 0.324 H 0 V 0" /></g><g
   transform="matrix(1.3333333,0,0,-1.3333333,-177.71614,-43.069178)"
   id="g1435"><path
     inkscape:connector-curvature="0"
     id="path1437"
     style="fill:#ff0000;fill-opacity:1;fill-rule:nonzero;stroke:none"
     d="M 0,0 V 1.998 L 3.215,1" /></g><g
   transform="matrix(1.3333333,0,0,-1.3333333,-177.71614,-43.069178)"
   id="g1439"><path
     inkscape:connector-curvature="0"
     id="path1441"
     style="fill:#000000;fill-opacity:1;fill-rule:nonzero;stroke:none"
     d="M 0,0 H 0.296 V 1.724 L 2.626,1 -0.147,0.138 0,0 H 0.296 0 L 0.147,-0.137 3.362,0.862 3.509,1 3.362,1.137 0.147,2.136 H -0.147 L -0.293,1.998 V 0 l 0.146,-0.137 H 0.147 L 0,0" /></g><g
   transform="matrix(1.3333333,0,0,-1.3333333,-149.41347,-57.226508)"
   id="g1443"><path
     inkscape:connector-curvature="0"
     id="path1445"
     style="fill:#808000;fill-opacity:1;fill-rule:nonzero;stroke:none"
     d="M 0,0 -12.578,-3.337 V -15.356 L 0,-18.699" /></g><g
   transform="matrix(1.3333333,0,0,-1.3333333,-149.41347,-57.226508)"
   id="g1447"><path
     inkscape:connector-curvature="0"
     id="path1449"
     style="fill:#22280b;fill-opacity:1;fill-rule:nonzero;stroke:none"
     d="M 0,0 -0.092,0.344 -12.934,-3.063 V -15.63 l 13.29,-3.533 V 0.463 L -0.092,0.344 0,0 h -0.357 v -18.234 l -11.863,3.152 v 11.47 L 0.091,-0.345 0,0 H -0.357 0" /></g><path
   inkscape:connector-curvature="0"
   id="path1451"
   style="fill:#008080;fill-opacity:1;fill-rule:nonzero;stroke:none;stroke-width:1.33333325"
   d="m -140.66147,-66.943844 h 7.83467 v -16.393333 h -7.83467 z" /><g
   transform="matrix(1.3333333,0,0,-1.3333333,-140.66147,-83.337178)"
   id="g1453"><path
     inkscape:connector-curvature="0"
     id="path1455"
     style="fill:#0b280b;fill-opacity:1;fill-rule:nonzero;stroke:none"
     d="M 0,0 H 0.324 V -11.972 H 5.553 V -0.325 H 0 V 0 H 0.324 0 V 0.323 H 6.201 V -12.62 H -0.324 V 0.323 H 0 V 0" /></g><g
   transform="matrix(1.3333333,0,0,-1.3333333,-138.88813,-73.806508)"
   id="g1457"><path
     inkscape:connector-curvature="0"
     id="path1459"
     style="fill:#00ff00;fill-opacity:1;fill-rule:nonzero;stroke:none"
     d="M 0,0 V 1.999 L 3.215,1" /></g><g
   transform="matrix(1.3333333,0,0,-1.3333333,-138.88813,-73.806508)"
   id="g1461"><path
     inkscape:connector-curvature="0"
     id="path1463"
     style="fill:#000000;fill-opacity:1;fill-rule:nonzero;stroke:none"
     d="M 0,0 H 0.295 V 1.724 L 2.626,1 -0.147,0.137 0,0 H 0.295 0 L 0.147,-0.137 3.362,0.862 3.511,1 3.362,1.137 0.147,2.136 H -0.147 L -0.294,1.999 V 0 l 0.147,-0.137 H 0.147 L 0,0" /></g><path
   inkscape:connector-curvature="0"
   id="path1465"
   style="fill:#008080;fill-opacity:1;fill-rule:nonzero;stroke:none;stroke-width:1.33333325"
   d="m -140.66147,19.293492 h 7.83467 V 2.9014877 h -7.83467 z" /><g
   transform="matrix(1.3333333,0,0,-1.3333333,-140.66147,2.9014917)"
   id="g1467"><path
     inkscape:connector-curvature="0"
     id="path1469"
     style="fill:#0b280b;fill-opacity:1;fill-rule:nonzero;stroke:none"
     d="M 0,0 H 0.324 V -11.97 H 5.553 V -0.324 H 0 V 0 H 0.324 0 V 0.324 H 6.201 V -12.618 H -0.324 V 0.324 H 0 V 0" /></g><g
   transform="matrix(1.3333333,0,0,-1.3333333,-138.88813,12.430822)"
   id="g1471"><path
     inkscape:connector-curvature="0"
     id="path1473"
     style="fill:#00ff00;fill-opacity:1;fill-rule:nonzero;stroke:none"
     d="m 0,0 v 1.999 l 3.215,-1" /></g><g
   transform="matrix(1.3333333,0,0,-1.3333333,-138.88813,12.430822)"
   id="g1475"><path
     inkscape:connector-curvature="0"
     id="path1477"
     style="fill:#000000;fill-opacity:1;fill-rule:nonzero;stroke:none"
     d="M 0,0 H 0.295 V 1.725 L 2.628,0.999 -0.147,0.137 0,0 H 0.295 0 l 0.147,-0.138 3.215,1 L 3.511,0.999 3.362,1.136 0.147,2.137 H -0.147 L -0.294,1.999 V 0 l 0.147,-0.138 H 0.147 L 0,0" /></g><path
   inkscape:connector-curvature="0"
   id="path1479"
   style="fill:#008080;fill-opacity:1;fill-rule:nonzero;stroke:none;stroke-width:1.33333325"
   d="m -112.35747,-68.103844 h 26.747995 v -13.84 h -26.747995 z" /><g
   transform="matrix(1.3333333,0,0,-1.3333333,-85.609475,-81.943848)"
   id="g1481"><path
     inkscape:connector-curvature="0"
     id="path1483"
     style="fill:#0b280b;fill-opacity:1;fill-rule:nonzero;stroke:none"
     d="m 0,0 h -0.324 v -10.056 h -19.414 v 9.731 L 0,-0.325 V 0 H -0.324 0 V 0.324 H -20.386 V -10.704 H 0.323 V 0.324 H 0 V 0" /></g><path
   inkscape:connector-curvature="0"
   id="path1485"
   style="fill:#008080;fill-opacity:1;fill-rule:nonzero;stroke:none;stroke-width:1.33333325"
   d="m -117.30547,-66.827844 h 7.83467 v -16.393333 h -7.83467 z" /><g
   transform="matrix(1.3333333,0,0,-1.3333333,-109.4708,-83.221178)"
   id="g1487"><path
     inkscape:connector-curvature="0"
     id="path1489"
     style="fill:#0b280b;fill-opacity:1;fill-rule:nonzero;stroke:none"
     d="M 0,0 H -0.324 V -11.972 H -5.552 V -0.325 H 0 V 0 H -0.324 0 V 0.323 H -6.201 V -12.62 H 0.324 V 0.323 H 0 V 0" /></g><path
   inkscape:connector-curvature="0"
   id="path1491"
   style="fill:#008080;fill-opacity:1;fill-rule:nonzero;stroke:none;stroke-width:1.33333325"
   d="m -100.3828,-68.103844 h 26.750665 v -13.84 H -100.3828 Z" /><g
   transform="matrix(1.3333333,0,0,-1.3333333,-100.3828,-81.943848)"
   id="g1493"><path
     inkscape:connector-curvature="0"
     id="path1495"
     style="fill:#0b280b;fill-opacity:1;fill-rule:nonzero;stroke:none"
     d="m 0,0 h 0.325 v -10.056 h 19.413 v 9.731 L 0,-0.325 V 0 H 0.325 0 V 0.324 H 20.386 V -10.704 H -0.323 V 0.324 H 0 V 0" /></g><path
   inkscape:connector-curvature="0"
   id="path1497"
   style="fill:#008080;fill-opacity:1;fill-rule:nonzero;stroke:none;stroke-width:1.33333325"
   d="m -76.521475,-66.827844 h 7.836 v -16.393333 h -7.836 z" /><g
   transform="matrix(1.3333333,0,0,-1.3333333,-76.521475,-83.221178)"
   id="g1499"><path
     inkscape:connector-curvature="0"
     id="path1501"
     style="fill:#0b280b;fill-opacity:1;fill-rule:nonzero;stroke:none"
     d="M 0,0 H 0.325 V -11.972 H 5.552 V -0.325 H 0 V 0 H 0.325 0 V 0.323 H 6.2 V -12.62 H -0.324 V 0.323 H 0 V 0" /></g><g
   transform="matrix(1.3333333,0,0,-1.3333333,-74.748135,-73.690508)"
   id="g1503"><path
     inkscape:connector-curvature="0"
     id="path1505"
     style="fill:#00ff00;fill-opacity:1;fill-rule:nonzero;stroke:none"
     d="M 0,0 V 2 L 3.216,1.001" /></g><g
   transform="matrix(1.3333333,0,0,-1.3333333,-74.748135,-73.690508)"
   id="g1507"><path
     inkscape:connector-curvature="0"
     id="path1509"
     style="fill:#000000;fill-opacity:1;fill-rule:nonzero;stroke:none"
     d="M 0,0 H 0.295 V 1.725 L 2.628,1.001 -0.146,0.137 0,0 H 0.295 0 l 0.147,-0.137 3.215,1 L 3.51,1.001 3.362,1.138 0.147,2.137 H -0.146 L -0.294,2 V 0 l 0.148,-0.137 H 0.147 L 0,0" /></g><g
   transform="matrix(1.3333333,0,0,-1.3333333,-115.53213,-73.690508)"
   id="g1511"><path
     inkscape:connector-curvature="0"
     id="path1513"
     style="fill:#ff0000;fill-opacity:1;fill-rule:nonzero;stroke:none"
     d="M 0,0 V 2 L 3.215,1.001" /></g><g
   transform="matrix(1.3333333,0,0,-1.3333333,-115.53213,-73.690508)"
   id="g1515"><path
     inkscape:connector-curvature="0"
     id="path1517"
     style="fill:#000000;fill-opacity:1;fill-rule:nonzero;stroke:none"
     d="M 0,0 H 0.295 V 1.725 L 2.627,1.001 -0.147,0.137 0,0 H 0.295 0 l 0.147,-0.137 3.215,1 L 3.51,1.001 3.362,1.138 0.147,2.137 H -0.147 L -0.294,2 V 0 l 0.147,-0.137 H 0.147 L 0,0" /></g><path
   inkscape:connector-curvature="0"
   id="path1519"
   style="fill:#93ac93;fill-opacity:1;fill-rule:nonzero;stroke:none;stroke-width:1.33333325"
   d="m -105.6908,-62.322511 h 25.402655 V -87.725177 H -105.6908 Z" /><g
   transform="matrix(1.3333333,0,0,-1.3333333,-105.6908,-87.725178)"
   id="g1521"><path
     inkscape:connector-curvature="0"
     id="path1523"
     style="fill:#0b280b;fill-opacity:1;fill-rule:nonzero;stroke:none"
     d="M 0,0 V -0.343 H 18.708 V -18.71 H 0.342 V 0 H 0 V -0.343 0 H -0.343 V -19.394 H 19.395 V 0.342 H -0.343 V 0 H 0" /></g><path
   inkscape:connector-curvature="0"
   id="path1557"
   style="fill:#008080;fill-opacity:1;fill-rule:nonzero;stroke:none;stroke-width:1.33333325"
   d="m -58.361475,-17.874512 h 26.748 v -13.84 h -26.748 z" /><g
   transform="matrix(1.3333333,0,0,-1.3333333,-58.361475,-31.714508)"
   id="g1559"><path
     inkscape:connector-curvature="0"
     id="path1561"
     style="fill:#0b280b;fill-opacity:1;fill-rule:nonzero;stroke:none"
     d="m 0,0 h 0.324 v -10.056 h 19.412 v 9.733 L 0,-0.323 V 0 H 0.324 0 V 0.325 H 20.386 V -10.703 H -0.324 V 0.325 H 0 V 0" /></g><path
   inkscape:connector-curvature="0"
   id="path1563"
   style="fill:#008080;fill-opacity:1;fill-rule:nonzero;stroke:none;stroke-width:1.33333325"
   d="m -34.500145,-16.598512 h 7.83467 v -16.393333 h -7.83467 z" /><g
   transform="matrix(1.3333333,0,0,-1.3333333,-34.500135,-32.991848)"
   id="g1565"><path
     inkscape:connector-curvature="0"
     id="path1567"
     style="fill:#0b280b;fill-opacity:1;fill-rule:nonzero;stroke:none"
     d="M 0,0 H 0.323 V -11.97 H 5.551 V -0.324 H 0 V 0 H 0.323 0 V 0.324 H 6.2 V -12.619 H -0.324 V 0.324 H 0 V 0" /></g><g
   transform="matrix(1.3333333,0,0,-1.3333333,-32.725475,-23.461178)"
   id="g1569"><path
     inkscape:connector-curvature="0"
     id="path1571"
     style="fill:#00ff00;fill-opacity:1;fill-rule:nonzero;stroke:none"
     d="m 0,0 v 2.001 l 3.215,-1" /></g><g
   transform="matrix(1.3333333,0,0,-1.3333333,-32.725475,-23.461178)"
   id="g1573"><path
     inkscape:connector-curvature="0"
     id="path1575"
     style="fill:#000000;fill-opacity:1;fill-rule:nonzero;stroke:none"
     d="M 0,0 H 0.293 V 1.726 L 2.625,1.001 -0.149,0.139 0,0 H 0.293 0 l 0.146,-0.136 3.216,1 L 3.508,1 3.362,1.137 0.146,2.139 H -0.149 L -0.295,2.001 V 0 l 0.146,-0.136 H 0.146 L 0,0" /></g><path
   inkscape:connector-curvature="0"
   id="path1577"
   style="fill:#008080;fill-opacity:1;fill-rule:nonzero;stroke:none;stroke-width:1.33333325"
   d="m -57.888135,-17.225179 h 13.84 v -26.749332 h -13.84 z" /><g
   transform="matrix(1.3333333,0,0,-1.3333333,-44.048135,-17.225178)"
   id="g1579"><path
     inkscape:connector-curvature="0"
     id="path1581"
     style="fill:#0b280b;fill-opacity:1;fill-rule:nonzero;stroke:none"
     d="m 0,0 v 0.324 h -10.057 v 19.413 h 9.733 L -0.324,0 H 0 V 0.324 0 H 0.324 V 20.386 H -10.705 V -0.324 H 0.324 V 0 H 0" /></g><path
   inkscape:connector-curvature="0"
   id="path1583"
   style="fill:#008080;fill-opacity:1;fill-rule:nonzero;stroke:none;stroke-width:1.33333325"
   d="m -59.165475,-41.086511 h 16.392 v -7.834667 h -16.392 z" /><g
   transform="matrix(1.3333333,0,0,-1.3333333,-42.773475,-41.086508)"
   id="g1585"><path
     inkscape:connector-curvature="0"
     id="path1587"
     style="fill:#0b280b;fill-opacity:1;fill-rule:nonzero;stroke:none"
     d="M 0,0 V 0.324 H -11.97 V 5.552 H -0.324 V 0 H 0 V 0.324 0 H 0.324 V 6.2 H -12.619 V -0.325 H 0.324 V 0 H 0" /></g><g
   transform="matrix(1.3333333,0,0,-1.3333333,-52.301475,-47.147848)"
   id="g1589"><path
     inkscape:connector-curvature="0"
     id="path1591"
     style="fill:#ff0000;fill-opacity:1;fill-rule:nonzero;stroke:none"
     d="M 0,0 H 2 L 1,-3.215" /></g><g
   transform="matrix(1.3333333,0,0,-1.3333333,-52.301475,-47.147848)"
   id="g1593"><path
     inkscape:connector-curvature="0"
     id="path1595"
     style="fill:#000000;fill-opacity:1;fill-rule:nonzero;stroke:none"
     d="M 0,0 V -0.295 H 1.725 L 1,-2.627 0.137,0.147 0,0 V -0.295 0 l -0.138,-0.147 1,-3.216 L 1,-3.51 1.136,-3.363 2.137,-0.148 V 0.147 L 2,0.294 H 0 L -0.138,0.147 V -0.147 L 0,0" /></g><path
   inkscape:connector-curvature="0"
   id="path1597"
   style="fill:#93ac93;fill-opacity:1;fill-rule:nonzero;stroke:none;stroke-width:1.33333325"
   d="m -63.669475,-12.094512 h 25.40134 v -25.401333 h -25.40134 z" /><g
   transform="matrix(1.3333333,0,0,-1.3333333,-63.669475,-37.495848)"
   id="g1599"><path
     inkscape:connector-curvature="0"
     id="path1601"
     style="fill:#0b280b;fill-opacity:1;fill-rule:nonzero;stroke:none"
     d="M 0,0 V -0.343 H 18.709 V -18.708 H 0.341 V 0 H 0 V -0.343 0 H -0.343 V -19.393 H 19.393 V 0.342 H -0.343 V 0 H 0" /></g><g
   transform="matrix(1.8838068,0,0,-1.8838068,-35.219367,-122.49607)"
   id="g1611"><path
     inkscape:connector-curvature="0"
     id="path1613"
     style="fill:#afe9dd;fill-opacity:1;fill-rule:nonzero;stroke:none"
     d="m 0,0 h 5.014 c 2.107,0 3.803,-1.696 3.803,-3.803 0,-2.107 -1.696,-3.804 -3.803,-3.804 H 0 c -2.108,0 -3.803,1.697 -3.803,3.804 C -3.803,-1.696 -2.108,0 0,0" /></g><g
   transform="matrix(1.8838068,0,0,-1.8838068,-35.219367,-122.49607)"
   id="g1615"><path
     inkscape:connector-curvature="0"
     id="path1617"
     style="fill:#000000;fill-opacity:1;fill-rule:nonzero;stroke:none"
     d="m 0,0 v -0.325 h 5.014 c 1.928,0 3.478,-1.549 3.479,-3.478 C 8.492,-5.731 6.942,-7.282 5.014,-7.282 H 0 c -1.929,0 -3.478,1.551 -3.479,3.479 10e-4,1.929 1.549,3.478 3.479,3.478 v 0.649 c -1.143,0 -2.177,-0.461 -2.922,-1.206 -0.745,-0.745 -1.207,-1.78 -1.207,-2.921 0,-1.142 0.462,-2.175 1.207,-2.922 0.745,-0.746 1.779,-1.206 2.922,-1.206 h 5.014 c 1.142,0 2.175,0.46 2.921,1.206 0.745,0.747 1.207,1.78 1.207,2.922 0,1.141 -0.462,2.176 -1.207,2.921 -0.746,0.745 -1.78,1.206 -2.921,1.206 L 0,0.324 V 0" /></g><g
   transform="matrix(1.8838068,0,0,-1.8838068,-31.063679,-120.01322)"
   id="g1619"><path
     inkscape:connector-curvature="0"
     id="path1621"
     style="fill:#000000;fill-opacity:1;fill-rule:nonzero;stroke:none"
     d="M 0,0 V -2.003 H -1.998 V -2.617 H 0 V -4.62 h 0.604 v 2.003 h 1.997 v 0.614 H 0.604 V 0 H 0" /></g><g
   id="g7904"
   transform="translate(-2,-4)"
   inkscape:export-filename="/home/jalves/code/zimiso/img/fork.png"
   inkscape:export-xdpi="96"
   inkscape:export-ydpi="96"><path
     sodipodi:nodetypes="ccccccc"
     inkscape:connector-curvature="0"
     id="polygon2"
     d="M 118,100 V 36 L 54,4 2,42 v 64 l 40,20 z"
     style="fill:#e5e5e5" /><path
     sodipodi:nodetypes="ccccc"
     inkscape:connector-curvature="0"
     id="polygon106"
     d="m 2,42 v 64 l 40,22 V 64 Z"
     style="fill:#808000;fill-opacity:1" /><path
     sodipodi:nodetypes="ccccc"
     inkscape:connector-curvature="0"
     id="polygon210"
     d="m 2,106 40,22 V 64 L 2,42 Z"
     style="opacity:0.06000001" /><path
     sodipodi:nodetypes="ccccc"
     inkscape:connector-curvature="0"
     id="polygon214"
     d="M 41.90943,60.088707 8.9,42 54,8.5 109.1,36 Z"
     style="opacity:0.66000001;fill:#93ac93;fill-opacity:1" /><path
     sodipodi:nodetypes="ccccc"
     inkscape:connector-curvature="0"
     id="polygon216"
     d="m 54,10.5 v -2 L 8.9,42 l 2,1 z"
     style="opacity:0.38999999" /><polygon
     transform="translate(-10,4)"
     points="64,6.5 117.1,33 119.1,32 64,4.5 "
     id="polygon218"
     style="opacity:0.06000001" /><path
     sodipodi:nodetypes="ccccc"
     inkscape:connector-curvature="0"
     id="polygon7891"
     d="m 118,36 v 64 L 42,128 V 64 Z"
     style="opacity:1;fill:#808000;fill-opacity:1" /><path
     sodipodi:nodetypes="ccccc"
     inkscape:connector-curvature="0"
     id="polygon208"
     d="M 118,100 42,128 V 64 l 76,-28 z"
     style="opacity:0.38999999" /></g></svg>